# xmcd
#
# Track frame offsets: 
#        150
#        26524
#        50659
#        70230
#        87737
#        116141
#        142923
#        170270
#        196939
#        213265
#        230047
#        255206
#
# Disc length: 3737 seconds
#
# Revision: 0
# Processed by: cddbd v1.5.2PL0 Copyright (c) Steve Scherf et al.
# Submitted via: ExactAudioCopy v0.99pb4
#
DISCID=a70e970c
DTITLE=Cashmere - Let The Music Turn You On
DYEAR=1983
DGENRE=R&B
TTITLE0=Let The Music Turn You On
TTITLE1=Light Of Love
TTITLE2=Tracks Of My Tears
TTITLE3=Do It Anyway You Wanna
TTITLE4=Try Your Lovin'
TTITLE5=Inner Feelings
TTITLE6=Contemplation
TTITLE7=Do It Anyway You Wanna (12" Version)
TTITLE8=Let The Music Turn You On (Single Version)
TTITLE9=Try Your Lovin' (Single Version)
TTITLE10=Do It Anyway You Wanna (12" Instrumental)
TTITLE11=Try Your Lovin' (12" Instrumental)
EXTD=
EXTT0=
EXTT1=
EXTT2=
EXTT3=
EXTT4=
EXTT5=
EXTT6=
EXTT7=
EXTT8=
EXTT9=
EXTT10=
EXTT11=
PLAYORDER=
